<svg xmlns="http://www.w3.org/2000/svg" viewBox="0 0 210.69 364.37"><defs><style>.cls-1{fill:#1f5eff;}.cls-2{fill:#3fa9f5;}</style></defs><title>Asset 1</title><g id="Layer_2" data-name="Layer 2"><g id="Layer_1-2" data-name="Layer 1"><circle class="cls-1" cx="105.69" cy="105.69" r="69"/><polygon class="cls-1" points="65.22 292.76 91.39 364.37 142.49 72.41 68.62 59.48 17.89 349.32 65.22 292.76"/><polygon class="cls-2" points="66.22 287.08 24.82 336.54 57.63 149.08 61.83 148.87 58.24 219.07 105.35 166.9 118.67 181.65 89.2 350 66.22 287.08"/><path class="cls-2" d="M61.3,149.4l-3.49,68.24-.14,2.81,1.88-2.09,45.8-50.72,12.79,14.17L89,348.07,67,287.72l-.59-1.62-1.11,1.33L25.64,334.78,58.06,149.56l3.24-.16m1.05-1.06-5.14.26L24,338.29l42-50.22L89,350.82l.58.1L119.2,181.5l-13.85-15.35L58.81,217.69l3.54-69.35Z"/><polygon class="cls-1" points="146.16 292.76 119.99 364.37 68.89 72.41 142.76 59.48 193.49 349.32 146.16 292.76"/><polygon class="cls-2" points="92.71 181.65 106.03 166.9 153.14 219.07 149.55 148.87 153.74 149.08 186.55 336.54 145.16 287.08 122.17 350 92.71 181.65"/><path class="cls-2" d="M150.08,149.4l3.24.16,32.42,185.22L146.1,287.43,145,286.1l-.59,1.62-22.05,60.35L93.24,181.81,106,167.64l45.8,50.72,1.88,2.09-.14-2.81-3.49-68.24M149,148.34l3.54,69.35L106,166.15,92.18,181.5l29.65,169.42.58-.1,22.93-62.75,42,50.22L154.17,148.6l-5.14-.26Z"/><polygon class="cls-2" points="105.35 48.33 148.98 0 145.66 65.03 210.69 61.71 162.36 105.35 210.69 148.98 145.66 145.66 148.98 210.69 105.35 162.36 61.71 210.69 65.03 145.66 0 148.98 48.33 105.35 0 61.71 65.03 65.03 61.71 0 105.35 48.33"/><circle class="cls-1" cx="105.69" cy="105.69" r="48"/></g></g></svg>